<svg width="214" height="380" viewBox="0 0 214 380" fill="none" xmlns="http://www.w3.org/2000/svg">
<g clip-path="url(#clip0_17349_21265)">
<path d="M212.703 36.6662C212.658 32.949 212.341 29.2401 211.753 25.5694C211.222 22.4612 210.227 19.4505 208.8 16.6387C207.388 13.9122 205.551 11.4287 203.356 9.28201C201.146 7.1264 198.613 5.32901 195.849 3.95477C192.972 2.54198 189.904 1.55594 186.743 1.02772C182.984 0.454305 179.189 0.143502 175.386 0.0975684C173.493 0.0390274 171.574 0 169.734 0H44.2346C42.3938 0 40.475 0.0390274 38.5821 0.0975684C34.7751 0.142898 30.9759 0.453703 27.2122 1.02772C24.0505 1.5553 20.9827 2.54137 18.1058 3.95477C15.3387 5.32733 12.8037 7.12486 10.593 9.28201C8.39775 11.4284 6.55978 13.9119 5.14871 16.6387C3.70547 19.4472 2.69663 22.4583 2.15661 25.5694C1.56862 29.2401 1.25121 32.949 1.20694 36.6662C1.1484 38.5265 1.11588 40.3998 1.10938 42.2016V337.798C1.10938 339.6 1.1484 341.473 1.20694 343.334C1.25121 347.051 1.56862 350.76 2.15661 354.431C2.69663 357.542 3.70547 360.553 5.14871 363.361C6.55781 366.088 8.39356 368.571 10.5865 370.718C12.7972 372.875 15.3322 374.673 18.0993 376.045C20.9762 377.459 24.044 378.445 27.2057 378.972C30.9587 379.545 34.747 379.856 38.5431 379.902C40.4359 379.961 42.3548 379.993 44.1956 380H169.734C171.574 380 173.493 379.961 175.386 379.902C179.182 379.856 182.97 379.545 186.723 378.972C189.885 378.444 192.953 377.458 195.83 376.045C198.594 374.671 201.127 372.874 203.336 370.718C205.538 368.573 207.383 366.089 208.8 363.361C210.238 360.551 211.245 357.541 211.786 354.431C212.363 350.759 212.669 347.05 212.703 343.334C212.761 341.473 212.8 339.6 212.807 337.798V42.2016C212.826 40.3998 212.787 38.5265 212.703 36.6662ZM200.994 344.303C200.994 345.376 200.994 346.521 200.923 347.64C200.806 349.526 200.501 351.395 200.012 353.221C199.197 356.492 197.514 359.483 195.14 361.878C192.725 364.219 189.719 365.858 186.444 366.62C184.611 367.147 182.731 367.489 180.83 367.641C180.18 367.68 179.438 367.7 178.534 367.7C177.832 367.7 177.064 367.7 176.212 367.7C175.126 367.7 173.896 367.7 172.446 367.7H41.0213C39.5643 367.7 38.3415 367.7 37.2552 367.7C36.3966 367.7 35.6356 367.7 34.9331 367.7C34.0289 367.7 33.3004 367.7 32.637 367.641C30.7408 367.488 28.8646 367.146 27.0365 366.62C23.7454 365.879 20.7275 364.231 18.3248 361.863C15.9221 359.495 14.2306 356.501 13.442 353.221C12.9471 351.414 12.6354 349.561 12.5119 347.692C12.3818 345.636 12.3623 343.431 12.3623 339.281V39.8209C12.3623 35.7621 12.4924 33.3814 12.6094 31.4691C12.7028 29.5838 12.9817 27.7122 13.442 25.8816C14.2663 22.5947 15.9665 19.5928 18.3615 17.1954C20.7566 14.7981 23.7569 13.095 27.0431 12.2676C28.8779 11.7808 30.7557 11.4736 32.65 11.3505H33.0923C35.0892 11.2269 37.3528 11.0838 41.0279 11.0838H51.3311C52.0947 11.052 52.8561 11.1855 53.5634 11.4751C54.2706 11.7647 54.907 12.2037 55.4289 12.7619C55.815 13.2251 56.1052 13.7602 56.2827 14.3364C56.4602 14.9126 56.5216 15.5182 56.4632 16.1183C56.4269 16.9363 56.5191 17.755 56.7364 18.5445V18.6681C57.1138 20.3775 57.9759 21.9419 59.2195 23.1739C60.4631 24.406 62.0354 25.2535 63.7483 25.615C65.0737 25.8616 66.42 25.9792 67.7681 25.9662L69.1731 26.0182H144.405L145.81 25.9662C147.158 25.9789 148.504 25.8613 149.83 25.615C151.543 25.2493 153.115 24.397 154.357 23.1601C155.598 21.9233 156.457 20.3545 156.829 18.6421V18.5185C157.048 17.7294 157.143 16.9107 157.108 16.0923C157.05 15.4922 157.111 14.8865 157.289 14.3104C157.466 13.7342 157.756 13.199 158.142 12.7359C158.664 12.1777 159.301 11.7387 160.008 11.4491C160.715 11.1594 161.477 11.026 162.24 11.0577H172.433C176.108 11.0577 178.372 11.2009 180.375 11.3244H180.817C182.709 11.448 184.585 11.7552 186.418 12.2416C189.702 13.0652 192.701 14.7647 195.095 17.1588C197.489 19.553 199.189 22.552 200.012 25.8361C200.465 27.6633 200.74 29.5302 200.832 31.4105C200.968 33.557 200.968 35.8922 200.968 39.7559V338.52C200.968 339.763 200.968 340.843 200.968 341.773C200.968 342.703 201.027 343.574 200.994 344.303Z" fill="#AFAFAF"/>
<path d="M209.543 38.4683C209.499 34.8644 209.19 31.2685 208.619 27.7098C208.094 24.6943 207.116 21.7755 205.718 19.0522C204.353 16.4012 202.572 13.9857 200.443 11.8972C198.307 9.8175 195.857 8.08576 193.184 6.76507C190.384 5.37812 187.394 4.41364 184.312 3.90307C180.671 3.34172 176.996 3.03958 173.313 2.99894C171.472 2.94039 169.618 2.90787 167.829 2.90137H46.0379C44.2491 2.90137 42.3888 2.94039 40.5545 2.99894C36.8713 3.03958 33.1957 3.34172 29.5553 3.90307C26.4835 4.40955 23.5029 5.36511 20.7091 6.73906C18.0259 8.06682 15.5677 9.80736 13.424 11.8972C11.2938 13.9843 9.51272 16.4001 8.14881 19.0522C6.74853 21.7743 5.77034 24.6935 5.24778 27.7098C4.67714 31.2685 4.36843 34.8644 4.32413 38.4683C4.26559 40.2636 4.23307 42.0848 4.22656 43.8346V334.023C4.22656 335.773 4.26559 337.594 4.32413 339.389C4.36843 342.993 4.67714 346.589 5.24778 350.148C5.77034 353.164 6.74853 356.083 8.14881 358.805C9.51272 361.457 11.2938 363.873 13.424 365.96C15.5656 368.053 18.0243 369.793 20.7091 371.118C23.5029 372.492 26.4835 373.448 29.5553 373.954C33.1957 374.516 36.8713 374.818 40.5545 374.859C42.3888 374.917 44.2491 374.95 46.0379 374.956H167.816C169.605 374.956 171.459 374.917 173.3 374.859C176.983 374.818 180.658 374.516 184.299 373.954C187.387 373.439 190.381 372.468 193.184 371.073C195.872 369.75 198.333 368.009 200.476 365.915C202.604 363.826 204.385 361.411 205.751 358.76C207.148 356.037 208.126 353.118 208.652 350.102C209.222 346.543 209.531 342.948 209.576 339.344C209.634 337.548 209.667 335.727 209.673 333.977V43.789C209.634 42.0848 209.602 40.2636 209.543 38.4683ZM199.689 342.876C199.689 344.105 199.689 345.139 199.624 346.128C199.508 347.935 199.214 349.726 198.745 351.475C198.021 354.535 196.449 357.33 194.209 359.538C191.969 361.746 189.152 363.277 186.081 363.957C184.337 364.466 182.545 364.795 180.734 364.939C178.627 365.069 176.318 364.998 172.376 364.998H41.1074C37.1396 364.998 34.824 365.069 32.71 364.939C30.8968 364.795 29.103 364.466 27.3568 363.957C24.3063 363.25 21.505 361.728 19.2521 359.553C17.0346 357.32 15.4615 354.528 14.6989 351.475C14.2281 349.746 13.9317 347.974 13.8143 346.187C13.6842 344.092 13.6647 341.737 13.6647 337.835V39.8408C13.6647 35.938 13.7753 33.6484 13.9053 31.5539C13.9985 29.7526 14.2643 27.9643 14.6989 26.2137C15.4662 23.1522 17.049 20.3559 19.2791 18.1224C21.5091 15.889 24.3029 14.3018 27.3633 13.5298C29.1167 13.0616 30.9119 12.7675 32.723 12.6517C34.824 12.5216 37.1201 12.359 41.0294 12.359H51.287C51.874 12.3249 52.4614 12.4189 53.0084 12.6346C53.5555 12.8502 54.049 13.1824 54.4548 13.6079C55.1052 14.3624 55.1508 15.156 55.1573 16.1056C55.1223 17.0602 55.2342 18.0145 55.489 18.9351C55.9168 20.8897 56.8971 22.6803 58.3131 24.094C59.7291 25.5077 61.5213 26.485 63.4766 26.9097C65.3538 27.2134 67.2535 27.357 69.1551 27.339H144.432C146.334 27.3567 148.234 27.2131 150.111 26.9097C152.067 26.4884 153.86 25.5121 155.276 24.0977C156.691 22.6834 157.669 20.8909 158.092 18.9351C158.352 18.0155 158.467 17.0607 158.43 16.1056C158.43 15.156 158.43 14.3624 159.126 13.6079C159.534 13.1829 160.028 12.8512 160.576 12.6356C161.124 12.4201 161.712 12.3257 162.3 12.359H172.454C176.357 12.359 178.659 12.5216 180.76 12.6517C182.567 12.7674 184.358 13.0616 186.107 13.5298C189.174 14.3129 191.974 15.9031 194.218 18.135C196.435 20.3696 198.008 23.1604 198.771 26.2137C199.207 27.9616 199.471 29.7481 199.558 31.5474C199.689 33.6354 199.689 35.9315 199.689 39.8212V337.074C199.689 339.526 199.721 341.341 199.689 342.876Z" fill="#FBFBFD"/>
<path d="M1.76924 65.4814H0V81.6713H1.76924V65.4814Z" fill="#AFAFAF"/>
<path d="M1.47009 97.752H1.76279V128.974H1.47009C1.27594 128.974 1.08372 128.935 0.904511 128.861C0.725305 128.786 0.562669 128.677 0.425993 128.539C0.289317 128.401 0.181307 128.237 0.108201 128.057C0.0350946 127.877 -0.00166054 127.685 5.75683e-05 127.491V99.222C5.75683e-05 98.8321 0.154935 98.4582 0.43062 98.1825C0.706304 97.9068 1.08021 97.752 1.47009 97.752V97.752Z" fill="#AFAFAF"/>
<path d="M1.76924 168.098H1.47653C1.08493 168.098 0.709371 167.942 0.432467 167.665C0.155563 167.389 0 167.013 0 166.621L0 138.366C-1.89511e-06 138.172 0.038236 137.98 0.112518 137.801C0.186801 137.623 0.295664 137.46 0.432859 137.324C0.570054 137.187 0.732877 137.079 0.911981 137.006C1.09108 136.932 1.28294 136.895 1.47653 136.896H1.76924V168.098Z" fill="#AFAFAF"/>
<path d="M212.23 157.469H212.523C212.717 157.47 212.909 157.432 213.088 157.359C213.267 157.285 213.43 157.177 213.567 157.041C213.704 156.904 213.813 156.742 213.887 156.563C213.961 156.384 214 156.192 214 155.999V109.166C214 108.774 213.844 108.399 213.567 108.122C213.29 107.845 212.915 107.689 212.523 107.689H212.23V157.469Z" fill="#AFAFAF"/>
<path d="M124.938 18.2767C124.935 17.5632 125.144 16.8649 125.539 16.2705C125.934 15.676 126.496 15.2121 127.154 14.9376C127.813 14.663 128.538 14.5902 129.238 14.7283C129.938 14.8664 130.582 15.2092 131.087 15.7133C131.592 16.2174 131.936 16.8601 132.075 17.5599C132.215 18.2597 132.143 18.9851 131.87 19.6442C131.596 20.3033 131.133 20.8664 130.54 21.2622C129.946 21.6579 129.248 21.8685 128.535 21.8672C127.582 21.8672 126.668 21.4891 125.993 20.816C125.319 20.1428 124.939 19.2295 124.938 18.2767" fill="#AFAFAF"/>
<path d="M117.302 19.7738H96.9163C96.4607 19.8191 96.0031 19.7116 95.6154 19.4681C95.4309 19.3294 95.2813 19.1496 95.1786 18.943C95.0758 18.7363 95.0227 18.5085 95.0235 18.2777C95.0222 18.0478 95.0751 17.8208 95.1779 17.6151C95.2808 17.4094 95.4306 17.2309 95.6154 17.0939C96.0013 16.8458 96.4598 16.7357 96.9163 16.7817H117.321C117.778 16.7357 118.236 16.8458 118.622 17.0939C118.808 17.2305 118.958 17.4089 119.062 17.6145C119.166 17.8201 119.22 18.0473 119.22 18.2777C119.22 18.509 119.166 18.7369 119.062 18.9435C118.958 19.1502 118.807 19.3297 118.622 19.4681C118.229 19.7159 117.764 19.8236 117.302 19.7738V19.7738Z" fill="#AFAFAF"/>
</g>
<defs>
<clipPath id="clip0_17349_21265">
<rect width="214" height="380" fill="white"/>
</clipPath>
</defs>
</svg>
