<svg width="33" height="30" viewBox="0 0 33 30" fill="none" xmlns="http://www.w3.org/2000/svg">
<path opacity="0.7" d="M4.14027 2.16354L21.9295 9.33867C23.7465 10.046 29.802 12.551 29.802 12.551C29.802 12.551 32.5543 13.7498 30.5034 15.4714C29.6718 16.1933 26.5143 18.4727 23.1307 20.9783L13.0444 28.3209C13.0444 28.3209 11.9477 29.2153 10.7929 28.5044C9.63809 27.7934 9.08382 25.612 9.03136 25.1157C8.97829 24.7298 7.67057 18.3858 7.46434 15.7385C7.41309 15.0215 7.2753 13.7861 8.93 13.8874C12.7363 14.0322 17.5485 14.3888 20.4177 14.3732C21.7419 14.3659 23.7759 13.1993 19.1459 12.3419L6.68791 9.75527C6.68791 9.75527 4.70953 9.53892 3.56257 7.39335C2.41562 5.24779 1.54799 2.66279 1.54799 2.66279C1.54799 2.66279 1.00273 0.801307 4.14027 2.16354Z" stroke="black" stroke-width="2"/>
</svg>
